<svg xmlns="http://www.w3.org/2000/svg" width="1600" height="420" viewBox="0 0 1600 420" fill="none">
  <rect width="1600" height="420" fill="#0A0F1C"></rect>
  <text x="80" y="70" font-family="&#39;JetBrains Mono&#39;, monospace" font-size="14" letter-spacing="3" fill="#00D9FF">NEXARO · NODE · PRODUCT FAMILY</text>

  
  <g transform="translate(80, 120) scale(2.5)">
    <rect x="4" y="4" width="64" height="64" rx="10" stroke="#1E2842" fill="#0A0F1C"></rect>
    <line x1="16" y1="56" x2="16" y2="16" stroke="#00D9FF" stroke-width="3" stroke-linecap="round"></line>
    <line x1="16" y1="16" x2="56" y2="56" stroke="#00D9FF" stroke-width="3" stroke-linecap="round"></line>
    <line x1="56" y1="56" x2="56" y2="16" stroke="#00D9FF" stroke-width="3" stroke-linecap="round"></line>
    <circle cx="16" cy="16" r="4.5" fill="#00D9FF"></circle>
    <circle cx="56" cy="56" r="4.5" fill="#00D9FF"></circle>
    <circle cx="16" cy="56" r="3.5" fill="#0A0F1C" stroke="#00D9FF" stroke-width="1.5"></circle>
    <circle cx="56" cy="16" r="5.5" fill="#B537F2"></circle>
  </g>
  <text x="80" y="360" font-family="&#39;JetBrains Mono&#39;, monospace" font-size="14" fill="#7A86A8">MASTER</text>
  <text x="80" y="385" font-family="&#39;Space Grotesk&#39;, sans-serif" font-size="22" fill="#E6ECFF" font-weight="500">Nexaro</text>

  
  <g transform="translate(380, 120) scale(2.5)">
    <rect x="4" y="4" width="64" height="64" rx="10" stroke="#1E2842" fill="#0A0F1C"></rect>
    <line x1="16" y1="56" x2="16" y2="16" stroke="#FF4FD8" stroke-width="3" stroke-linecap="round"></line>
    <line x1="16" y1="16" x2="56" y2="56" stroke="#FF4FD8" stroke-width="3" stroke-linecap="round"></line>
    <line x1="56" y1="56" x2="56" y2="16" stroke="#FF4FD8" stroke-width="3" stroke-linecap="round"></line>
    <circle cx="16" cy="16" r="4.5" fill="#FF4FD8"></circle>
    <circle cx="56" cy="56" r="4.5" fill="#FF4FD8"></circle>
    <circle cx="16" cy="56" r="3.5" fill="#0A0F1C" stroke="#FF4FD8" stroke-width="1.5"></circle>
    <circle cx="56" cy="16" r="5.5" fill="#FFD84F"></circle>
  </g>
  <text x="380" y="360" font-family="&#39;JetBrains Mono&#39;, monospace" font-size="14" fill="#7A86A8">NX-001.L</text>
  <text x="380" y="385" font-family="&#39;Space Grotesk&#39;, sans-serif" font-size="22" fill="#E6ECFF" font-weight="500">Nexaro <tspan fill="#FF4FD8">Life</tspan></text>

  
  <g transform="translate(680, 120) scale(2.5)">
    <rect x="4" y="4" width="64" height="64" rx="10" stroke="#1E2842" fill="#0A0F1C"></rect>
    <line x1="16" y1="56" x2="16" y2="16" stroke="#00D9FF" stroke-width="3" stroke-linecap="round"></line>
    <line x1="16" y1="16" x2="56" y2="56" stroke="#00D9FF" stroke-width="3" stroke-linecap="round"></line>
    <line x1="56" y1="56" x2="56" y2="16" stroke="#00D9FF" stroke-width="3" stroke-linecap="round"></line>
    <circle cx="16" cy="16" r="4.5" fill="#00D9FF"></circle>
    <circle cx="56" cy="56" r="4.5" fill="#00D9FF"></circle>
    <circle cx="16" cy="56" r="3.5" fill="#0A0F1C" stroke="#00D9FF" stroke-width="1.5"></circle>
    <circle cx="56" cy="16" r="5.5" fill="#B537F2"></circle>
  </g>
  <text x="680" y="360" font-family="&#39;JetBrains Mono&#39;, monospace" font-size="14" fill="#7A86A8">NX-002.O</text>
  <text x="680" y="385" font-family="&#39;Space Grotesk&#39;, sans-serif" font-size="22" fill="#E6ECFF" font-weight="500">Nexaro <tspan fill="#00D9FF">OS</tspan></text>

  
  <g transform="translate(980, 120) scale(2.5)">
    <rect x="4" y="4" width="64" height="64" rx="10" stroke="#1E2842" fill="#0A0F1C"></rect>
    <line x1="16" y1="56" x2="16" y2="16" stroke="#6B4FFF" stroke-width="3" stroke-linecap="round"></line>
    <line x1="16" y1="16" x2="56" y2="56" stroke="#6B4FFF" stroke-width="3" stroke-linecap="round"></line>
    <line x1="56" y1="56" x2="56" y2="16" stroke="#6B4FFF" stroke-width="3" stroke-linecap="round"></line>
    <circle cx="16" cy="16" r="4.5" fill="#6B4FFF"></circle>
    <circle cx="56" cy="56" r="4.5" fill="#6B4FFF"></circle>
    <circle cx="16" cy="56" r="3.5" fill="#0A0F1C" stroke="#6B4FFF" stroke-width="1.5"></circle>
    <circle cx="56" cy="16" r="5.5" fill="#00D9FF"></circle>
  </g>
  <text x="980" y="360" font-family="&#39;JetBrains Mono&#39;, monospace" font-size="14" fill="#7A86A8">NX-003.C</text>
  <text x="980" y="385" font-family="&#39;Space Grotesk&#39;, sans-serif" font-size="22" fill="#E6ECFF" font-weight="500">Nexaro <tspan fill="#6B4FFF">CRM</tspan></text>

  
  <g transform="translate(1280, 120) scale(2.5)">
    <rect x="4" y="4" width="64" height="64" rx="10" stroke="#1E2842" fill="#0A0F1C"></rect>
    <line x1="16" y1="56" x2="16" y2="16" stroke="#7BE55A" stroke-width="3" stroke-linecap="round"></line>
    <line x1="16" y1="16" x2="56" y2="56" stroke="#7BE55A" stroke-width="3" stroke-linecap="round"></line>
    <line x1="56" y1="56" x2="56" y2="16" stroke="#7BE55A" stroke-width="3" stroke-linecap="round"></line>
    <circle cx="16" cy="16" r="4.5" fill="#7BE55A"></circle>
    <circle cx="56" cy="56" r="4.5" fill="#7BE55A"></circle>
    <circle cx="16" cy="56" r="3.5" fill="#0A0F1C" stroke="#7BE55A" stroke-width="1.5"></circle>
    <circle cx="56" cy="16" r="5.5" fill="#00D9FF"></circle>
  </g>
  <text x="1280" y="360" font-family="&#39;JetBrains Mono&#39;, monospace" font-size="14" fill="#7A86A8">NX-004.R</text>
  <text x="1280" y="385" font-family="&#39;Space Grotesk&#39;, sans-serif" font-size="22" fill="#E6ECFF" font-weight="500">Rent <tspan fill="#7BE55A">OS</tspan></text>
</svg>